<?xml version="1.0" encoding="UTF-8"?>
<svg id="_レイヤー_1" data-name="レイヤー_1" xmlns="http://www.w3.org/2000/svg" width="250" height="45" version="1.1" viewBox="0 0 250 45">
  <!-- Generator: Adobe Illustrator 29.1.0, SVG Export Plug-In . SVG Version: 2.1.0 Build 142)  -->
  <defs>
    <style>
      .st0 {
        fill: #d52425;
      }

      .st1 {
        fill: #686768;
      }
    </style>
  </defs>
  <g>
    <g>
      <path class="st1" d="M4,41.81c-.09,2.28-3.35,2.28-3.44,0,0,0,0-1.82,0-2.58,0,0,1.06,0,1.06,0v2.57c.03.88,1.3.88,1.33,0,0,0,0-2.57,0-2.57h1.06c0,.76,0,2.57,0,2.58Z"/>
      <path class="st1" d="M5.95,42.57c-.4,0-.72-.32-.72-.73s.32-.73.72-.73c.25,0,.48.13.6.33h1.01c-.18-.74-.83-1.29-1.61-1.29-.92,0-1.66.75-1.66,1.68s.74,1.68,1.66,1.68c.77,0,1.41-.52,1.6-1.23h-1.03c-.13.17-.34.28-.57.28Z"/>
      <path class="st1" d="M8.7,40.56v-1.33h-.93v4.2h.93v-1.88c.02-.65,1-.65,1.02,0v1.88h.93v-2.15c0-.53-.4-.98-.93-1.06-.38-.07-.78.08-1.02.34Z"/>
      <rect class="st1" x="10.96" y="39.23" width=".93" height=".76" transform="translate(22.86 79.22) rotate(180)"/>
      <rect class="st1" x="10.96" y="40.23" width=".93" height="3.2" transform="translate(22.86 83.66) rotate(180)"/>
      <path class="st1" d="M15.42,40.26h-.88v.22c-1.02-.71-2.42.1-2.4,1.37-.02,1.23,1.33,2.06,2.35,1.4,0,.1,0,.15,0,.15-.07.56-.99.64-1.14.17h-1.1c.22,1.58,3.06,1.54,3.18-.14v-3.17ZM13.82,42.59c-.41,0-.75-.34-.75-.75.02-.5.38-.75.75-.75s.73.25.75.75c0,.41-.33.75-.75.75Z"/>
      <path class="st1" d="M25.43,42.41c-1.44-.06-1.44-2.13,0-2.19.4,0,.79.23.95.59,0,0,1.13,0,1.13,0-.23-.95-1.07-1.66-2.09-1.66-2.85.11-2.85,4.22,0,4.34.99,0,1.82-.68,2.07-1.59h-1.13c-.2.31-.53.52-.93.52Z"/>
      <path class="st1" d="M17.91,42.46c-.15.18-.34.25-.59.25-.39,0-.76-.25-.79-.6.64,0,1.79,0,2.42,0,.02-.09.03-.18.03-.28,0-.92-.74-1.67-1.66-1.67s-1.66.75-1.66,1.67.74,1.67,1.66,1.67c.7,0,1.29-.43,1.54-1.05h-.95ZM17.32,40.97c.34,0,.64.22.76.52h-1.51c.12-.3.41-.52.76-.52Z"/>
      <path class="st1" d="M20.16,40.56v-.3h-.93v3.17h.93v-1.88c.02-.65,1-.65,1.02,0v1.88h.93v-2.15c0-.53-.4-.98-.93-1.06-.38-.07-.78.08-1.02.34Z"/>
      <path class="st1" d="M29.3,40.17c-.91,0-1.65.75-1.65,1.69s.74,1.69,1.65,1.69,1.65-.75,1.65-1.69-.74-1.69-1.65-1.69ZM29.3,42.58c-.39,0-.71-.32-.71-.72s.32-.72.71-.72.71.32.71.72-.32.72-.71.72Z"/>
      <rect class="st1" x="31.01" y="42.47" width=".94" height=".98"/>
      <rect class="st1" x="40.94" y="42.47" width=".94" height=".98"/>
      <polygon class="st1" points="34.55 42.46 34.55 39.23 33.45 39.23 33.45 42.46 33.45 43.43 34.55 43.43 35.77 43.43 35.77 42.46 34.55 42.46"/>
      <polygon class="st1" points="37.4 40.25 36.99 40.25 36.99 39.23 36.03 39.23 36.03 40.25 35.62 40.25 35.62 41.06 36.03 41.06 36.03 43.43 36.99 43.43 36.99 41.06 37.4 41.06 37.4 40.25"/>
      <path class="st1" d="M39.8,39.23v1.32c-.26-.2-.57-.32-.92-.32-.86,0-1.55.73-1.55,1.63s.69,1.63,1.55,1.63c.34,0,.66-.12.92-.32v.26h.96v-4.2h-.96ZM39.07,42.59c-.41,0-.74-.33-.74-.74s.33-.74.74-.74.74.33.74.74-.33.74-.74.74Z"/>
      <path class="st1" d="M32.12,42.47v.98h.4v.15c0,.25-.21.33-.4.32v.47c.42.03.93-.06.94-.64,0-.21,0-.3,0-.3v-.98h-.94Z"/>
    </g>
    <path id="_新トレース" data-name="新トレース" class="st0" d="M0,24.94C0,17.14,6.8,5.29,12.53.36c.94-.82,2.33-.18,1.79,1.31-.9,2.48-2.26,6.37-1.91,10.72.22,2.73,4.65,9.32,13.47-2.15,2.39-3.1,4.17-7.2,5.33-6.33.59.44.43.97-.09,3.81-.66,3.62-4.11,12.89-.61,16.73,3.27,3.59,8.75.85,11.17-1.48.63-.6,1.74-.14,1.33,1.08-1.52,4.58-2.72,7.32-4.48,9.73-4.17,5.71-13.59,4.55-15.81-2.85C17.61,41.27.37,39.3,0,24.94Z"/>
  </g>
  <g>
    <path class="st1" d="M66.32,29.18c-.44,11-16.15,11-16.59,0-.03-.03,0-8.75,0-12.42,0,0,5.1,0,5.1,0,0,0,0,12.36,0,12.36.15,4.23,6.25,4.23,6.39,0,0,0,0-12.36,0-12.36h5.1c0,3.67,0,12.36,0,12.42Z"/>
    <path class="st1" d="M75.72,32.86c-1.91,0-3.46-1.56-3.46-3.5s1.55-3.5,3.46-3.5c1.22,0,2.29.64,2.91,1.6h4.87c-.84-3.55-4-6.2-7.78-6.2-4.42,0-8,3.62-8,8.09s3.58,8.09,8,8.09c3.69,0,6.78-2.52,7.71-5.95h-4.98c-.63.82-1.62,1.35-2.73,1.35Z"/>
    <path class="st1" d="M88.94,23.17v-6.4h-4.48v20.22h4.48v-9.08c.1-3.14,4.82-3.13,4.92,0v9.08h4.48v-10.35c0-2.57-1.94-4.7-4.48-5.12-1.81-.33-3.77.37-4.92,1.65Z"/>
    <rect class="st1" x="99.85" y="16.77" width="4.49" height="3.68" transform="translate(204.18 37.21) rotate(180)"/>
    <rect class="st1" x="99.85" y="21.59" width="4.49" height="15.4" transform="translate(204.18 58.58) rotate(180)"/>
    <path class="st1" d="M121.31,21.74h-4.23v1.04c-4.92-3.44-11.66.49-11.57,6.58-.11,5.91,6.4,9.91,11.3,6.75,0,.5,0,.71,0,.72-.35,2.68-4.78,3.1-5.5.82h-5.29c1.07,7.59,14.76,7.44,15.3-.67v-15.25ZM113.63,32.98c-1.99,0-3.6-1.62-3.6-3.62.09-2.4,1.84-3.59,3.6-3.59,1.75,0,3.51,1.2,3.6,3.59,0,2-1.61,3.62-3.6,3.62Z"/>
    <path class="st1" d="M169.53,32.08c-6.92-.28-6.92-10.27,0-10.54,1.95.02,3.81,1.1,4.55,2.83,0,0,5.43,0,5.43,0-1.09-4.59-5.17-8-10.04-8-13.71.55-13.71,20.35,0,20.89,4.76,0,8.76-3.26,9.96-7.68h-5.45c-.97,1.49-2.56,2.51-4.46,2.51Z"/>
    <path class="st1" d="M133.32,32.33c-.71.87-1.62,1.23-2.83,1.23-1.87,0-3.64-1.22-3.81-2.87,3.08-.01,8.64,0,11.66,0,.07-.44.12-.89.12-1.35,0-4.44-3.57-8.04-7.98-8.04s-7.98,3.6-7.98,8.04,3.57,8.04,7.98,8.04c3.36,0,6.22-2.09,7.4-5.05h-4.57ZM130.49,25.13c1.66,0,3.08,1.04,3.64,2.5h-7.28c.56-1.46,1.98-2.5,3.64-2.5Z"/>
    <path class="st1" d="M144.15,23.17v-1.47h-4.48v15.29h4.48v-9.08c.1-3.14,4.82-3.13,4.92,0v9.08h4.48v-10.35c0-2.57-1.94-4.7-4.48-5.12-1.81-.33-3.77.37-4.92,1.65Z"/>
    <path class="st1" d="M188.15,21.29c-4.39,0-7.95,3.63-7.95,8.12s3.56,8.12,7.95,8.12,7.95-3.63,7.95-8.12-3.56-8.12-7.95-8.12ZM188.15,32.88c-1.88,0-3.4-1.55-3.4-3.47s1.52-3.47,3.4-3.47,3.4,1.55,3.4,3.47-1.52,3.47-3.4,3.47Z"/>
    <rect class="st1" x="196.41" y="32.38" width="4.53" height="4.7"/>
    <rect class="st1" x="244.22" y="32.38" width="4.53" height="4.7"/>
    <polygon class="st1" points="213.44 32.33 213.44 16.77 208.17 16.77 208.17 32.32 208.17 36.99 213.44 36.99 219.35 36.99 219.35 32.33 213.44 32.33"/>
    <polygon class="st1" points="227.17 21.7 225.2 21.7 225.2 16.77 220.55 16.77 220.55 21.7 218.58 21.7 218.58 25.58 220.55 25.58 220.55 36.99 225.2 36.99 225.2 25.58 227.17 25.58 227.17 21.7"/>
    <path class="st1" d="M238.74,16.77v6.35c-1.24-.96-2.76-1.53-4.42-1.53-4.13,0-7.47,3.5-7.47,7.83s3.35,7.83,7.47,7.83c1.66,0,3.18-.57,4.42-1.53v1.27h4.64v-20.22h-4.64ZM235.21,32.94c-1.98,0-3.58-1.6-3.58-3.58s1.6-3.58,3.58-3.58,3.58,1.6,3.58,3.58-1.6,3.58-3.58,3.58Z"/>
    <path class="st1" d="M201.75,32.38v4.7h1.9v.72c0,1.19-1.02,1.59-1.9,1.54v2.26c2.01.14,4.49-.3,4.53-3.08,0-1.03,0-1.45,0-1.45v-4.7h-4.53Z"/>
  </g>
</svg>